<svg xmlns="http://www.w3.org/2000/svg" width="351.84" height="46.32" viewBox="0 0 351.84 46.32">
  <g id="Raggruppa_19" data-name="Raggruppa 19" transform="translate(-178.2 -152.88)">
    <path id="Tracciato_21" data-name="Tracciato 21" d="M13.2,0V-35.28H24.36V0ZM1.2-34.08V-43.8H36.36v9.72ZM64.08,1.2A24.494,24.494,0,0,1,53.64-.87a21.806,21.806,0,0,1-7.38-5.46,23.353,23.353,0,0,1-4.38-7.35,22.414,22.414,0,0,1-1.44-7.68v-1.32a22.934,22.934,0,0,1,1.5-8.13,21.923,21.923,0,0,1,4.5-7.23,21.807,21.807,0,0,1,7.41-5.16,25.437,25.437,0,0,1,10.23-1.92A25.274,25.274,0,0,1,74.25-43.2a21.807,21.807,0,0,1,7.41,5.16,22.344,22.344,0,0,1,4.53,7.23,22.536,22.536,0,0,1,1.53,8.13v1.32a22.009,22.009,0,0,1-1.47,7.68,23.831,23.831,0,0,1-4.41,7.35A21.806,21.806,0,0,1,74.46-.87,24.34,24.34,0,0,1,64.08,1.2Zm0-10.44a13.185,13.185,0,0,0,5.16-.96,11.188,11.188,0,0,0,3.9-2.7,11.783,11.783,0,0,0,2.46-4.05,14.553,14.553,0,0,0,.84-5.01,14.886,14.886,0,0,0-.87-5.22,11.469,11.469,0,0,0-2.49-4.02,10.9,10.9,0,0,0-3.9-2.58,13.786,13.786,0,0,0-5.1-.9,13.961,13.961,0,0,0-5.16.9,10.9,10.9,0,0,0-3.9,2.58,11.121,11.121,0,0,0-2.46,4.02,15.366,15.366,0,0,0-.84,5.22,14.553,14.553,0,0,0,.84,5.01,11.783,11.783,0,0,0,2.46,4.05,11.188,11.188,0,0,0,3.9,2.7A13.185,13.185,0,0,0,64.08-9.24ZM96.24,0V-43.8h15.48l9,23.1h1.2l8.94-23.1h15.78V0H135.6V-37.38l1.74.12L126.06-8.82H115.92L104.58-37.26l1.86-.12V0Zm57.12,0L167.4-43.8h17.88L199.8,0H188.28L177-36l3.18,1.2h-7.92L175.5-36,164.52,0Zm11.46-10.14,3.36-9.12H184.8l3.36,9.12ZM211.2,0V-35.28h11.16V0Zm-12-34.08V-43.8h35.16v9.72ZM241.92,0V-43.8h11.16V0Zm21.96,0V-43.8h15.48l9,23.1h1.2l8.94-23.1h15.78V0H303.24V-37.38l1.74.12L293.7-8.82H283.56L272.22-37.26l1.86-.12V0Zm61.08,0V-43.8h10.8V0Zm9.6,0V-9.12h18.48V0Zm0-17.7v-9.12h17.22v9.12Zm0-16.98V-43.8h18.12v9.12Z" transform="translate(177 198)" fill="#d9391e"/>
    <circle id="Ellisse_21" data-name="Ellisse 21" cx="16.44" cy="16.44" r="16.44" transform="translate(225.056 160.234)" fill="#d9391e"/>
    <g id="Icon_feather-clock" data-name="Icon feather-clock" transform="translate(241.496 165.731)">
      <path id="Tracciato_20" data-name="Tracciato 20" d="M18,9V20.356l7.571,3.785" transform="translate(-18 -9)" fill="none" stroke="#fff" stroke-linecap="round" stroke-linejoin="round" stroke-width="4"/>
    </g>
  </g>
</svg>
